<mxfile host="app.diagrams.net" modified="2024-06-10T16:37:22.797Z" agent="Mozilla/5.0 (Windows NT 10.0; Win64; x64) AppleWebKit/537.36 (KHTML, like Gecko) Chrome/125.0.0.0 Safari/537.36" etag="uDOL1J0hC-vv7AU1stso" version="24.5.2" type="device">
  <diagram name="Page-1" id="P2hCqEnPHXEeFKP6DbiL">
    <mxGraphModel dx="3585" dy="1845" grid="1" gridSize="10" guides="1" tooltips="1" connect="1" arrows="1" fold="1" page="1" pageScale="1" pageWidth="3300" pageHeight="4681" math="0" shadow="0">
      <root>
        <mxCell id="0" />
        <mxCell id="1" parent="0" />
        <mxCell id="fSI5KDJvqZaZzSSYszZb-158" value="" style="rounded=0;whiteSpace=wrap;html=1;" vertex="1" parent="1">
          <mxGeometry x="160" y="160" width="120" height="60" as="geometry" />
        </mxCell>
        <mxCell id="fSI5KDJvqZaZzSSYszZb-159" value="id" style="text;html=1;align=center;verticalAlign=middle;whiteSpace=wrap;rounded=0;fontSize=25;" vertex="1" parent="1">
          <mxGeometry x="160" y="160" width="120" height="60" as="geometry" />
        </mxCell>
        <mxCell id="fSI5KDJvqZaZzSSYszZb-172" value="" style="rounded=0;whiteSpace=wrap;html=1;" vertex="1" parent="1">
          <mxGeometry x="280" y="160" width="120" height="60" as="geometry" />
        </mxCell>
        <mxCell id="fSI5KDJvqZaZzSSYszZb-173" value="ten" style="text;html=1;align=center;verticalAlign=middle;whiteSpace=wrap;rounded=0;fontSize=25;" vertex="1" parent="1">
          <mxGeometry x="280" y="160" width="120" height="60" as="geometry" />
        </mxCell>
        <mxCell id="fSI5KDJvqZaZzSSYszZb-174" value="" style="rounded=0;whiteSpace=wrap;html=1;" vertex="1" parent="1">
          <mxGeometry x="400" y="160" width="120" height="60" as="geometry" />
        </mxCell>
        <mxCell id="fSI5KDJvqZaZzSSYszZb-684" style="edgeStyle=orthogonalEdgeStyle;rounded=0;orthogonalLoop=1;jettySize=auto;html=1;exitX=0.5;exitY=1;exitDx=0;exitDy=0;entryX=0.5;entryY=0;entryDx=0;entryDy=0;" edge="1" parent="1" source="fSI5KDJvqZaZzSSYszZb-175" target="fSI5KDJvqZaZzSSYszZb-459">
          <mxGeometry relative="1" as="geometry">
            <Array as="points">
              <mxPoint x="460" y="290" />
              <mxPoint x="220" y="290" />
            </Array>
          </mxGeometry>
        </mxCell>
        <mxCell id="fSI5KDJvqZaZzSSYszZb-175" value="idVaitro" style="text;html=1;align=center;verticalAlign=middle;whiteSpace=wrap;rounded=0;fontSize=25;" vertex="1" parent="1">
          <mxGeometry x="400" y="160" width="120" height="60" as="geometry" />
        </mxCell>
        <mxCell id="fSI5KDJvqZaZzSSYszZb-176" value="" style="rounded=0;whiteSpace=wrap;html=1;" vertex="1" parent="1">
          <mxGeometry x="520" y="160" width="120" height="60" as="geometry" />
        </mxCell>
        <mxCell id="fSI5KDJvqZaZzSSYszZb-177" value="ngaysinh" style="text;html=1;align=center;verticalAlign=middle;whiteSpace=wrap;rounded=0;fontSize=25;" vertex="1" parent="1">
          <mxGeometry x="520" y="160" width="120" height="60" as="geometry" />
        </mxCell>
        <mxCell id="fSI5KDJvqZaZzSSYszZb-178" value="" style="rounded=0;whiteSpace=wrap;html=1;" vertex="1" parent="1">
          <mxGeometry x="640" y="160" width="120" height="60" as="geometry" />
        </mxCell>
        <mxCell id="fSI5KDJvqZaZzSSYszZb-179" value="diachi" style="text;html=1;align=center;verticalAlign=middle;whiteSpace=wrap;rounded=0;fontSize=25;" vertex="1" parent="1">
          <mxGeometry x="640" y="160" width="120" height="60" as="geometry" />
        </mxCell>
        <mxCell id="fSI5KDJvqZaZzSSYszZb-180" value="" style="rounded=0;whiteSpace=wrap;html=1;" vertex="1" parent="1">
          <mxGeometry x="760" y="160" width="120" height="60" as="geometry" />
        </mxCell>
        <mxCell id="fSI5KDJvqZaZzSSYszZb-181" value="email" style="text;html=1;align=center;verticalAlign=middle;whiteSpace=wrap;rounded=0;fontSize=25;" vertex="1" parent="1">
          <mxGeometry x="760" y="160" width="120" height="60" as="geometry" />
        </mxCell>
        <mxCell id="fSI5KDJvqZaZzSSYszZb-182" value="" style="rounded=0;whiteSpace=wrap;html=1;" vertex="1" parent="1">
          <mxGeometry x="880" y="160" width="120" height="60" as="geometry" />
        </mxCell>
        <mxCell id="fSI5KDJvqZaZzSSYszZb-183" value="sdt" style="text;html=1;align=center;verticalAlign=middle;whiteSpace=wrap;rounded=0;fontSize=25;" vertex="1" parent="1">
          <mxGeometry x="880" y="160" width="120" height="60" as="geometry" />
        </mxCell>
        <mxCell id="fSI5KDJvqZaZzSSYszZb-184" value="" style="rounded=0;whiteSpace=wrap;html=1;" vertex="1" parent="1">
          <mxGeometry x="1000" y="160" width="120" height="60" as="geometry" />
        </mxCell>
        <mxCell id="fSI5KDJvqZaZzSSYszZb-185" value="username" style="text;html=1;align=center;verticalAlign=middle;whiteSpace=wrap;rounded=0;fontSize=25;" vertex="1" parent="1">
          <mxGeometry x="1000" y="160" width="120" height="60" as="geometry" />
        </mxCell>
        <mxCell id="fSI5KDJvqZaZzSSYszZb-186" value="" style="rounded=0;whiteSpace=wrap;html=1;" vertex="1" parent="1">
          <mxGeometry x="1120" y="160" width="120" height="60" as="geometry" />
        </mxCell>
        <mxCell id="fSI5KDJvqZaZzSSYszZb-187" value="password" style="text;html=1;align=center;verticalAlign=middle;whiteSpace=wrap;rounded=0;fontSize=25;" vertex="1" parent="1">
          <mxGeometry x="1120" y="160" width="120" height="60" as="geometry" />
        </mxCell>
        <mxCell id="fSI5KDJvqZaZzSSYszZb-458" value="" style="rounded=0;whiteSpace=wrap;html=1;" vertex="1" parent="1">
          <mxGeometry x="160" y="320" width="120" height="60" as="geometry" />
        </mxCell>
        <mxCell id="fSI5KDJvqZaZzSSYszZb-459" value="id" style="text;html=1;align=center;verticalAlign=middle;whiteSpace=wrap;rounded=0;fontSize=25;" vertex="1" parent="1">
          <mxGeometry x="160" y="320" width="120" height="60" as="geometry" />
        </mxCell>
        <mxCell id="fSI5KDJvqZaZzSSYszZb-460" value="" style="rounded=0;whiteSpace=wrap;html=1;" vertex="1" parent="1">
          <mxGeometry x="280" y="320" width="120" height="60" as="geometry" />
        </mxCell>
        <mxCell id="fSI5KDJvqZaZzSSYszZb-461" value="tenvaitro" style="text;html=1;align=center;verticalAlign=middle;whiteSpace=wrap;rounded=0;fontSize=25;" vertex="1" parent="1">
          <mxGeometry x="280" y="320" width="120" height="60" as="geometry" />
        </mxCell>
        <mxCell id="fSI5KDJvqZaZzSSYszZb-476" value="" style="rounded=0;whiteSpace=wrap;html=1;" vertex="1" parent="1">
          <mxGeometry x="160" y="480" width="120" height="60" as="geometry" />
        </mxCell>
        <mxCell id="fSI5KDJvqZaZzSSYszZb-477" value="id" style="text;html=1;align=center;verticalAlign=middle;whiteSpace=wrap;rounded=0;fontSize=25;" vertex="1" parent="1">
          <mxGeometry x="160" y="480" width="120" height="60" as="geometry" />
        </mxCell>
        <mxCell id="fSI5KDJvqZaZzSSYszZb-478" value="" style="rounded=0;whiteSpace=wrap;html=1;" vertex="1" parent="1">
          <mxGeometry x="280" y="480" width="120" height="60" as="geometry" />
        </mxCell>
        <mxCell id="fSI5KDJvqZaZzSSYszZb-479" value="ten" style="text;html=1;align=center;verticalAlign=middle;whiteSpace=wrap;rounded=0;fontSize=25;" vertex="1" parent="1">
          <mxGeometry x="280" y="480" width="120" height="60" as="geometry" />
        </mxCell>
        <mxCell id="fSI5KDJvqZaZzSSYszZb-480" value="" style="rounded=0;whiteSpace=wrap;html=1;" vertex="1" parent="1">
          <mxGeometry x="400" y="480" width="120" height="60" as="geometry" />
        </mxCell>
        <mxCell id="fSI5KDJvqZaZzSSYszZb-481" value="baohanh" style="text;html=1;align=center;verticalAlign=middle;whiteSpace=wrap;rounded=0;fontSize=25;" vertex="1" parent="1">
          <mxGeometry x="400" y="480" width="120" height="60" as="geometry" />
        </mxCell>
        <mxCell id="fSI5KDJvqZaZzSSYszZb-482" value="" style="rounded=0;whiteSpace=wrap;html=1;" vertex="1" parent="1">
          <mxGeometry x="520" y="480" width="150" height="60" as="geometry" />
        </mxCell>
        <mxCell id="fSI5KDJvqZaZzSSYszZb-483" value="thuonghieu" style="text;html=1;align=center;verticalAlign=middle;whiteSpace=wrap;rounded=0;fontSize=25;" vertex="1" parent="1">
          <mxGeometry x="520" y="480" width="150" height="60" as="geometry" />
        </mxCell>
        <mxCell id="fSI5KDJvqZaZzSSYszZb-484" value="" style="rounded=0;whiteSpace=wrap;html=1;" vertex="1" parent="1">
          <mxGeometry x="670" y="480" width="120" height="60" as="geometry" />
        </mxCell>
        <mxCell id="fSI5KDJvqZaZzSSYszZb-485" value="xuatxu" style="text;html=1;align=center;verticalAlign=middle;whiteSpace=wrap;rounded=0;fontSize=25;" vertex="1" parent="1">
          <mxGeometry x="670" y="480" width="120" height="60" as="geometry" />
        </mxCell>
        <mxCell id="fSI5KDJvqZaZzSSYszZb-486" value="" style="rounded=0;whiteSpace=wrap;html=1;" vertex="1" parent="1">
          <mxGeometry x="790" y="480" width="120" height="60" as="geometry" />
        </mxCell>
        <mxCell id="fSI5KDJvqZaZzSSYszZb-487" value="loai" style="text;html=1;align=center;verticalAlign=middle;whiteSpace=wrap;rounded=0;fontSize=25;" vertex="1" parent="1">
          <mxGeometry x="790" y="480" width="120" height="60" as="geometry" />
        </mxCell>
        <mxCell id="fSI5KDJvqZaZzSSYszZb-488" value="" style="rounded=0;whiteSpace=wrap;html=1;" vertex="1" parent="1">
          <mxGeometry x="910" y="480" width="130" height="60" as="geometry" />
        </mxCell>
        <mxCell id="fSI5KDJvqZaZzSSYszZb-489" value="kichthuoc" style="text;html=1;align=center;verticalAlign=middle;whiteSpace=wrap;rounded=0;fontSize=25;" vertex="1" parent="1">
          <mxGeometry x="910" y="480" width="130" height="60" as="geometry" />
        </mxCell>
        <mxCell id="fSI5KDJvqZaZzSSYszZb-490" value="" style="rounded=0;whiteSpace=wrap;html=1;" vertex="1" parent="1">
          <mxGeometry x="1040" y="480" width="140" height="60" as="geometry" />
        </mxCell>
        <mxCell id="fSI5KDJvqZaZzSSYszZb-491" value="trongluong" style="text;html=1;align=center;verticalAlign=middle;whiteSpace=wrap;rounded=0;fontSize=25;" vertex="1" parent="1">
          <mxGeometry x="1040" y="480" width="140" height="60" as="geometry" />
        </mxCell>
        <mxCell id="fSI5KDJvqZaZzSSYszZb-492" value="" style="rounded=0;whiteSpace=wrap;html=1;" vertex="1" parent="1">
          <mxGeometry x="1180" y="480" width="120" height="60" as="geometry" />
        </mxCell>
        <mxCell id="fSI5KDJvqZaZzSSYszZb-493" value="mota" style="text;html=1;align=center;verticalAlign=middle;whiteSpace=wrap;rounded=0;fontSize=25;" vertex="1" parent="1">
          <mxGeometry x="1180" y="480" width="120" height="60" as="geometry" />
        </mxCell>
        <mxCell id="fSI5KDJvqZaZzSSYszZb-495" value="" style="rounded=0;whiteSpace=wrap;html=1;" vertex="1" parent="1">
          <mxGeometry x="160" y="640" width="120" height="60" as="geometry" />
        </mxCell>
        <mxCell id="fSI5KDJvqZaZzSSYszZb-496" value="id" style="text;html=1;align=center;verticalAlign=middle;whiteSpace=wrap;rounded=0;fontSize=25;" vertex="1" parent="1">
          <mxGeometry x="160" y="640" width="120" height="60" as="geometry" />
        </mxCell>
        <mxCell id="fSI5KDJvqZaZzSSYszZb-497" value="" style="rounded=0;whiteSpace=wrap;html=1;" vertex="1" parent="1">
          <mxGeometry x="280" y="640" width="120" height="60" as="geometry" />
        </mxCell>
        <mxCell id="fSI5KDJvqZaZzSSYszZb-498" value="ten" style="text;html=1;align=center;verticalAlign=middle;whiteSpace=wrap;rounded=0;fontSize=25;" vertex="1" parent="1">
          <mxGeometry x="280" y="640" width="120" height="60" as="geometry" />
        </mxCell>
        <mxCell id="fSI5KDJvqZaZzSSYszZb-499" value="" style="rounded=0;whiteSpace=wrap;html=1;" vertex="1" parent="1">
          <mxGeometry x="400" y="640" width="120" height="60" as="geometry" />
        </mxCell>
        <mxCell id="fSI5KDJvqZaZzSSYszZb-500" value="diachi" style="text;html=1;align=center;verticalAlign=middle;whiteSpace=wrap;rounded=0;fontSize=25;" vertex="1" parent="1">
          <mxGeometry x="400" y="640" width="120" height="60" as="geometry" />
        </mxCell>
        <mxCell id="fSI5KDJvqZaZzSSYszZb-501" value="" style="rounded=0;whiteSpace=wrap;html=1;" vertex="1" parent="1">
          <mxGeometry x="520" y="640" width="120" height="60" as="geometry" />
        </mxCell>
        <mxCell id="fSI5KDJvqZaZzSSYszZb-502" value="email" style="text;html=1;align=center;verticalAlign=middle;whiteSpace=wrap;rounded=0;fontSize=25;" vertex="1" parent="1">
          <mxGeometry x="520" y="640" width="120" height="60" as="geometry" />
        </mxCell>
        <mxCell id="fSI5KDJvqZaZzSSYszZb-503" value="" style="rounded=0;whiteSpace=wrap;html=1;" vertex="1" parent="1">
          <mxGeometry x="640" y="640" width="120" height="60" as="geometry" />
        </mxCell>
        <mxCell id="fSI5KDJvqZaZzSSYszZb-504" value="sdt" style="text;html=1;align=center;verticalAlign=middle;whiteSpace=wrap;rounded=0;fontSize=25;" vertex="1" parent="1">
          <mxGeometry x="640" y="640" width="120" height="60" as="geometry" />
        </mxCell>
        <mxCell id="fSI5KDJvqZaZzSSYszZb-513" value="" style="rounded=0;whiteSpace=wrap;html=1;" vertex="1" parent="1">
          <mxGeometry x="160" y="800" width="120" height="60" as="geometry" />
        </mxCell>
        <mxCell id="fSI5KDJvqZaZzSSYszZb-514" value="id" style="text;html=1;align=center;verticalAlign=middle;whiteSpace=wrap;rounded=0;fontSize=25;" vertex="1" parent="1">
          <mxGeometry x="160" y="800" width="120" height="60" as="geometry" />
        </mxCell>
        <mxCell id="fSI5KDJvqZaZzSSYszZb-515" value="" style="rounded=0;whiteSpace=wrap;html=1;" vertex="1" parent="1">
          <mxGeometry x="280" y="800" width="150" height="60" as="geometry" />
        </mxCell>
        <mxCell id="fSI5KDJvqZaZzSSYszZb-685" style="edgeStyle=orthogonalEdgeStyle;rounded=0;orthogonalLoop=1;jettySize=auto;html=1;exitX=0.5;exitY=0;exitDx=0;exitDy=0;entryX=0;entryY=0.5;entryDx=0;entryDy=0;" edge="1" parent="1" source="fSI5KDJvqZaZzSSYszZb-516" target="fSI5KDJvqZaZzSSYszZb-477">
          <mxGeometry relative="1" as="geometry">
            <Array as="points">
              <mxPoint x="355" y="720" />
              <mxPoint x="150" y="720" />
              <mxPoint x="150" y="510" />
            </Array>
          </mxGeometry>
        </mxCell>
        <mxCell id="fSI5KDJvqZaZzSSYszZb-516" value="idHanghoa" style="text;html=1;align=center;verticalAlign=middle;whiteSpace=wrap;rounded=0;fontSize=25;" vertex="1" parent="1">
          <mxGeometry x="280" y="800" width="150" height="60" as="geometry" />
        </mxCell>
        <mxCell id="fSI5KDJvqZaZzSSYszZb-517" value="" style="rounded=0;whiteSpace=wrap;html=1;" vertex="1" parent="1">
          <mxGeometry x="430" y="800" width="120" height="60" as="geometry" />
        </mxCell>
        <mxCell id="fSI5KDJvqZaZzSSYszZb-518" value="idNcc" style="text;html=1;align=center;verticalAlign=middle;whiteSpace=wrap;rounded=0;fontSize=25;" vertex="1" parent="1">
          <mxGeometry x="430" y="800" width="120" height="60" as="geometry" />
        </mxCell>
        <mxCell id="fSI5KDJvqZaZzSSYszZb-531" value="" style="rounded=0;whiteSpace=wrap;html=1;" vertex="1" parent="1">
          <mxGeometry x="160" y="960" width="120" height="60" as="geometry" />
        </mxCell>
        <mxCell id="fSI5KDJvqZaZzSSYszZb-532" value="id" style="text;html=1;align=center;verticalAlign=middle;whiteSpace=wrap;rounded=0;fontSize=25;" vertex="1" parent="1">
          <mxGeometry x="160" y="960" width="120" height="60" as="geometry" />
        </mxCell>
        <mxCell id="fSI5KDJvqZaZzSSYszZb-533" value="" style="rounded=0;whiteSpace=wrap;html=1;" vertex="1" parent="1">
          <mxGeometry x="280" y="960" width="120" height="60" as="geometry" />
        </mxCell>
        <mxCell id="fSI5KDJvqZaZzSSYszZb-534" value="ten" style="text;html=1;align=center;verticalAlign=middle;whiteSpace=wrap;rounded=0;fontSize=25;" vertex="1" parent="1">
          <mxGeometry x="280" y="960" width="120" height="60" as="geometry" />
        </mxCell>
        <mxCell id="fSI5KDJvqZaZzSSYszZb-535" value="" style="rounded=0;whiteSpace=wrap;html=1;" vertex="1" parent="1">
          <mxGeometry x="400" y="960" width="120" height="60" as="geometry" />
        </mxCell>
        <mxCell id="fSI5KDJvqZaZzSSYszZb-536" value="diachi" style="text;html=1;align=center;verticalAlign=middle;whiteSpace=wrap;rounded=0;fontSize=25;" vertex="1" parent="1">
          <mxGeometry x="400" y="960" width="120" height="60" as="geometry" />
        </mxCell>
        <mxCell id="fSI5KDJvqZaZzSSYszZb-537" value="" style="rounded=0;whiteSpace=wrap;html=1;" vertex="1" parent="1">
          <mxGeometry x="520" y="960" width="120" height="60" as="geometry" />
        </mxCell>
        <mxCell id="fSI5KDJvqZaZzSSYszZb-538" value="email" style="text;html=1;align=center;verticalAlign=middle;whiteSpace=wrap;rounded=0;fontSize=25;" vertex="1" parent="1">
          <mxGeometry x="520" y="960" width="120" height="60" as="geometry" />
        </mxCell>
        <mxCell id="fSI5KDJvqZaZzSSYszZb-539" value="" style="rounded=0;whiteSpace=wrap;html=1;" vertex="1" parent="1">
          <mxGeometry x="640" y="960" width="120" height="60" as="geometry" />
        </mxCell>
        <mxCell id="fSI5KDJvqZaZzSSYszZb-540" value="sdt" style="text;html=1;align=center;verticalAlign=middle;whiteSpace=wrap;rounded=0;fontSize=25;" vertex="1" parent="1">
          <mxGeometry x="640" y="960" width="120" height="60" as="geometry" />
        </mxCell>
        <mxCell id="fSI5KDJvqZaZzSSYszZb-549" value="" style="rounded=0;whiteSpace=wrap;html=1;" vertex="1" parent="1">
          <mxGeometry x="160" y="1120" width="120" height="60" as="geometry" />
        </mxCell>
        <mxCell id="fSI5KDJvqZaZzSSYszZb-550" value="id" style="text;html=1;align=center;verticalAlign=middle;whiteSpace=wrap;rounded=0;fontSize=25;" vertex="1" parent="1">
          <mxGeometry x="160" y="1120" width="120" height="60" as="geometry" />
        </mxCell>
        <mxCell id="fSI5KDJvqZaZzSSYszZb-551" value="" style="rounded=0;whiteSpace=wrap;html=1;" vertex="1" parent="1">
          <mxGeometry x="280" y="1120" width="120" height="60" as="geometry" />
        </mxCell>
        <mxCell id="fSI5KDJvqZaZzSSYszZb-686" style="edgeStyle=orthogonalEdgeStyle;rounded=0;orthogonalLoop=1;jettySize=auto;html=1;exitX=0.5;exitY=0;exitDx=0;exitDy=0;entryX=0;entryY=0.5;entryDx=0;entryDy=0;" edge="1" parent="1" source="fSI5KDJvqZaZzSSYszZb-552" target="fSI5KDJvqZaZzSSYszZb-578">
          <mxGeometry relative="1" as="geometry" />
        </mxCell>
        <mxCell id="fSI5KDJvqZaZzSSYszZb-552" value="idKho" style="text;html=1;align=center;verticalAlign=middle;whiteSpace=wrap;rounded=0;fontSize=25;" vertex="1" parent="1">
          <mxGeometry x="280" y="1120" width="120" height="60" as="geometry" />
        </mxCell>
        <mxCell id="fSI5KDJvqZaZzSSYszZb-553" value="" style="rounded=0;whiteSpace=wrap;html=1;" vertex="1" parent="1">
          <mxGeometry x="400" y="1120" width="120" height="60" as="geometry" />
        </mxCell>
        <mxCell id="fSI5KDJvqZaZzSSYszZb-687" style="edgeStyle=orthogonalEdgeStyle;rounded=0;orthogonalLoop=1;jettySize=auto;html=1;exitX=0.5;exitY=0;exitDx=0;exitDy=0;entryX=0;entryY=0.5;entryDx=0;entryDy=0;" edge="1" parent="1" source="fSI5KDJvqZaZzSSYszZb-554" target="fSI5KDJvqZaZzSSYszZb-159">
          <mxGeometry relative="1" as="geometry">
            <Array as="points">
              <mxPoint x="460" y="1090" />
              <mxPoint x="110" y="1090" />
              <mxPoint x="110" y="190" />
            </Array>
          </mxGeometry>
        </mxCell>
        <mxCell id="fSI5KDJvqZaZzSSYszZb-554" value="idNvien" style="text;html=1;align=center;verticalAlign=middle;whiteSpace=wrap;rounded=0;fontSize=25;" vertex="1" parent="1">
          <mxGeometry x="400" y="1120" width="120" height="60" as="geometry" />
        </mxCell>
        <mxCell id="fSI5KDJvqZaZzSSYszZb-555" value="" style="rounded=0;whiteSpace=wrap;html=1;" vertex="1" parent="1">
          <mxGeometry x="520" y="1120" width="170" height="60" as="geometry" />
        </mxCell>
        <mxCell id="fSI5KDJvqZaZzSSYszZb-556" value="ngaykiemke" style="text;html=1;align=center;verticalAlign=middle;whiteSpace=wrap;rounded=0;fontSize=25;" vertex="1" parent="1">
          <mxGeometry x="520" y="1120" width="170" height="60" as="geometry" />
        </mxCell>
        <mxCell id="fSI5KDJvqZaZzSSYszZb-557" value="" style="rounded=0;whiteSpace=wrap;html=1;" vertex="1" parent="1">
          <mxGeometry x="690" y="1120" width="120" height="60" as="geometry" />
        </mxCell>
        <mxCell id="fSI5KDJvqZaZzSSYszZb-558" value="tongslton" style="text;html=1;align=center;verticalAlign=middle;whiteSpace=wrap;rounded=0;fontSize=25;" vertex="1" parent="1">
          <mxGeometry x="690" y="1120" width="120" height="60" as="geometry" />
        </mxCell>
        <mxCell id="fSI5KDJvqZaZzSSYszZb-567" value="" style="rounded=0;whiteSpace=wrap;html=1;" vertex="1" parent="1">
          <mxGeometry x="160" y="1280" width="120" height="60" as="geometry" />
        </mxCell>
        <mxCell id="fSI5KDJvqZaZzSSYszZb-568" value="id" style="text;html=1;align=center;verticalAlign=middle;whiteSpace=wrap;rounded=0;fontSize=25;" vertex="1" parent="1">
          <mxGeometry x="160" y="1280" width="120" height="60" as="geometry" />
        </mxCell>
        <mxCell id="fSI5KDJvqZaZzSSYszZb-569" value="" style="rounded=0;whiteSpace=wrap;html=1;" vertex="1" parent="1">
          <mxGeometry x="280" y="1280" width="120" height="60" as="geometry" />
        </mxCell>
        <mxCell id="fSI5KDJvqZaZzSSYszZb-688" style="edgeStyle=orthogonalEdgeStyle;rounded=0;orthogonalLoop=1;jettySize=auto;html=1;exitX=0.5;exitY=0;exitDx=0;exitDy=0;entryX=0.5;entryY=1;entryDx=0;entryDy=0;" edge="1" parent="1" source="fSI5KDJvqZaZzSSYszZb-570" target="fSI5KDJvqZaZzSSYszZb-550">
          <mxGeometry relative="1" as="geometry">
            <Array as="points">
              <mxPoint x="340" y="1200" />
              <mxPoint x="220" y="1200" />
            </Array>
          </mxGeometry>
        </mxCell>
        <mxCell id="fSI5KDJvqZaZzSSYszZb-570" value="idPkk" style="text;html=1;align=center;verticalAlign=middle;whiteSpace=wrap;rounded=0;fontSize=25;" vertex="1" parent="1">
          <mxGeometry x="280" y="1280" width="120" height="60" as="geometry" />
        </mxCell>
        <mxCell id="fSI5KDJvqZaZzSSYszZb-571" value="" style="rounded=0;whiteSpace=wrap;html=1;" vertex="1" parent="1">
          <mxGeometry x="570" y="1280" width="120" height="60" as="geometry" />
        </mxCell>
        <mxCell id="fSI5KDJvqZaZzSSYszZb-572" value="soluong" style="text;html=1;align=center;verticalAlign=middle;whiteSpace=wrap;rounded=0;fontSize=25;" vertex="1" parent="1">
          <mxGeometry x="570" y="1280" width="120" height="60" as="geometry" />
        </mxCell>
        <mxCell id="fSI5KDJvqZaZzSSYszZb-573" value="" style="rounded=0;whiteSpace=wrap;html=1;" vertex="1" parent="1">
          <mxGeometry x="400" y="1280" width="170" height="60" as="geometry" />
        </mxCell>
        <mxCell id="fSI5KDJvqZaZzSSYszZb-689" style="edgeStyle=orthogonalEdgeStyle;rounded=0;orthogonalLoop=1;jettySize=auto;html=1;exitX=0.5;exitY=0;exitDx=0;exitDy=0;entryX=0;entryY=0.5;entryDx=0;entryDy=0;" edge="1" parent="1" source="fSI5KDJvqZaZzSSYszZb-574" target="fSI5KDJvqZaZzSSYszZb-477">
          <mxGeometry relative="1" as="geometry">
            <Array as="points">
              <mxPoint x="485" y="1250" />
              <mxPoint x="130" y="1250" />
              <mxPoint x="130" y="510" />
            </Array>
          </mxGeometry>
        </mxCell>
        <mxCell id="fSI5KDJvqZaZzSSYszZb-574" value="idHanghoa" style="text;html=1;align=center;verticalAlign=middle;whiteSpace=wrap;rounded=0;fontSize=25;" vertex="1" parent="1">
          <mxGeometry x="400" y="1280" width="170" height="60" as="geometry" />
        </mxCell>
        <mxCell id="fSI5KDJvqZaZzSSYszZb-577" value="" style="rounded=0;whiteSpace=wrap;html=1;" vertex="1" parent="1">
          <mxGeometry x="160" y="1440" width="120" height="60" as="geometry" />
        </mxCell>
        <mxCell id="fSI5KDJvqZaZzSSYszZb-578" value="id" style="text;html=1;align=center;verticalAlign=middle;whiteSpace=wrap;rounded=0;fontSize=25;" vertex="1" parent="1">
          <mxGeometry x="160" y="1440" width="120" height="60" as="geometry" />
        </mxCell>
        <mxCell id="fSI5KDJvqZaZzSSYszZb-579" value="" style="rounded=0;whiteSpace=wrap;html=1;" vertex="1" parent="1">
          <mxGeometry x="280" y="1440" width="120" height="60" as="geometry" />
        </mxCell>
        <mxCell id="fSI5KDJvqZaZzSSYszZb-580" value="ten" style="text;html=1;align=center;verticalAlign=middle;whiteSpace=wrap;rounded=0;fontSize=25;" vertex="1" parent="1">
          <mxGeometry x="280" y="1440" width="120" height="60" as="geometry" />
        </mxCell>
        <mxCell id="fSI5KDJvqZaZzSSYszZb-581" value="" style="rounded=0;whiteSpace=wrap;html=1;" vertex="1" parent="1">
          <mxGeometry x="400" y="1440" width="120" height="60" as="geometry" />
        </mxCell>
        <mxCell id="fSI5KDJvqZaZzSSYszZb-582" value="diachi" style="text;html=1;align=center;verticalAlign=middle;whiteSpace=wrap;rounded=0;fontSize=25;" vertex="1" parent="1">
          <mxGeometry x="400" y="1440" width="120" height="60" as="geometry" />
        </mxCell>
        <mxCell id="fSI5KDJvqZaZzSSYszZb-583" value="" style="rounded=0;whiteSpace=wrap;html=1;" vertex="1" parent="1">
          <mxGeometry x="160" y="1600" width="120" height="60" as="geometry" />
        </mxCell>
        <mxCell id="fSI5KDJvqZaZzSSYszZb-584" value="id" style="text;html=1;align=center;verticalAlign=middle;whiteSpace=wrap;rounded=0;fontSize=25;" vertex="1" parent="1">
          <mxGeometry x="160" y="1600" width="120" height="60" as="geometry" />
        </mxCell>
        <mxCell id="fSI5KDJvqZaZzSSYszZb-585" value="" style="rounded=0;whiteSpace=wrap;html=1;" vertex="1" parent="1">
          <mxGeometry x="280" y="1600" width="150" height="60" as="geometry" />
        </mxCell>
        <mxCell id="fSI5KDJvqZaZzSSYszZb-690" style="edgeStyle=orthogonalEdgeStyle;rounded=0;orthogonalLoop=1;jettySize=auto;html=1;exitX=0.5;exitY=0;exitDx=0;exitDy=0;entryX=0;entryY=0.5;entryDx=0;entryDy=0;" edge="1" parent="1" source="fSI5KDJvqZaZzSSYszZb-586" target="fSI5KDJvqZaZzSSYszZb-477">
          <mxGeometry relative="1" as="geometry">
            <Array as="points">
              <mxPoint x="355" y="1580" />
              <mxPoint x="120" y="1580" />
              <mxPoint x="120" y="510" />
            </Array>
          </mxGeometry>
        </mxCell>
        <mxCell id="fSI5KDJvqZaZzSSYszZb-586" value="idHanghoa" style="text;html=1;align=center;verticalAlign=middle;whiteSpace=wrap;rounded=0;fontSize=25;" vertex="1" parent="1">
          <mxGeometry x="280" y="1600" width="150" height="60" as="geometry" />
        </mxCell>
        <mxCell id="fSI5KDJvqZaZzSSYszZb-587" value="" style="rounded=0;whiteSpace=wrap;html=1;" vertex="1" parent="1">
          <mxGeometry x="430" y="1600" width="120" height="60" as="geometry" />
        </mxCell>
        <mxCell id="fSI5KDJvqZaZzSSYszZb-692" style="edgeStyle=orthogonalEdgeStyle;rounded=0;orthogonalLoop=1;jettySize=auto;html=1;exitX=0.5;exitY=0;exitDx=0;exitDy=0;entryX=0.5;entryY=1;entryDx=0;entryDy=0;" edge="1" parent="1" source="fSI5KDJvqZaZzSSYszZb-588" target="fSI5KDJvqZaZzSSYszZb-578">
          <mxGeometry relative="1" as="geometry">
            <Array as="points">
              <mxPoint x="490" y="1530" />
              <mxPoint x="220" y="1530" />
            </Array>
          </mxGeometry>
        </mxCell>
        <mxCell id="fSI5KDJvqZaZzSSYszZb-588" value="idKho" style="text;html=1;align=center;verticalAlign=middle;whiteSpace=wrap;rounded=0;fontSize=25;" vertex="1" parent="1">
          <mxGeometry x="430" y="1600" width="120" height="60" as="geometry" />
        </mxCell>
        <mxCell id="fSI5KDJvqZaZzSSYszZb-589" value="" style="rounded=0;whiteSpace=wrap;html=1;" vertex="1" parent="1">
          <mxGeometry x="550" y="1600" width="120" height="60" as="geometry" />
        </mxCell>
        <mxCell id="fSI5KDJvqZaZzSSYszZb-590" value="soluong" style="text;html=1;align=center;verticalAlign=middle;whiteSpace=wrap;rounded=0;fontSize=25;" vertex="1" parent="1">
          <mxGeometry x="550" y="1600" width="120" height="60" as="geometry" />
        </mxCell>
        <mxCell id="fSI5KDJvqZaZzSSYszZb-591" value="" style="rounded=0;whiteSpace=wrap;html=1;" vertex="1" parent="1">
          <mxGeometry x="1430" y="480" width="120" height="60" as="geometry" />
        </mxCell>
        <mxCell id="fSI5KDJvqZaZzSSYszZb-592" value="id" style="text;html=1;align=center;verticalAlign=middle;whiteSpace=wrap;rounded=0;fontSize=25;" vertex="1" parent="1">
          <mxGeometry x="1430" y="480" width="120" height="60" as="geometry" />
        </mxCell>
        <mxCell id="fSI5KDJvqZaZzSSYszZb-593" value="" style="rounded=0;whiteSpace=wrap;html=1;" vertex="1" parent="1">
          <mxGeometry x="1550" y="480" width="120" height="60" as="geometry" />
        </mxCell>
        <mxCell id="fSI5KDJvqZaZzSSYszZb-694" style="edgeStyle=orthogonalEdgeStyle;rounded=0;orthogonalLoop=1;jettySize=auto;html=1;exitX=0.5;exitY=0;exitDx=0;exitDy=0;entryX=0.5;entryY=0;entryDx=0;entryDy=0;" edge="1" parent="1" source="fSI5KDJvqZaZzSSYszZb-594" target="fSI5KDJvqZaZzSSYszZb-496">
          <mxGeometry relative="1" as="geometry">
            <Array as="points">
              <mxPoint x="1610" y="460" />
              <mxPoint x="1370" y="460" />
              <mxPoint x="1370" y="610" />
              <mxPoint x="220" y="610" />
            </Array>
          </mxGeometry>
        </mxCell>
        <mxCell id="fSI5KDJvqZaZzSSYszZb-594" value="idNcc" style="text;html=1;align=center;verticalAlign=middle;whiteSpace=wrap;rounded=0;fontSize=25;" vertex="1" parent="1">
          <mxGeometry x="1550" y="480" width="120" height="60" as="geometry" />
        </mxCell>
        <mxCell id="fSI5KDJvqZaZzSSYszZb-595" value="" style="rounded=0;whiteSpace=wrap;html=1;" vertex="1" parent="1">
          <mxGeometry x="1670" y="480" width="120" height="60" as="geometry" />
        </mxCell>
        <mxCell id="fSI5KDJvqZaZzSSYszZb-695" style="edgeStyle=orthogonalEdgeStyle;rounded=0;orthogonalLoop=1;jettySize=auto;html=1;exitX=0.5;exitY=0;exitDx=0;exitDy=0;entryX=0.5;entryY=0;entryDx=0;entryDy=0;" edge="1" parent="1" source="fSI5KDJvqZaZzSSYszZb-596" target="fSI5KDJvqZaZzSSYszZb-578">
          <mxGeometry relative="1" as="geometry">
            <Array as="points">
              <mxPoint x="1730" y="460" />
              <mxPoint x="1360" y="460" />
              <mxPoint x="1360" y="1420" />
              <mxPoint x="220" y="1420" />
            </Array>
          </mxGeometry>
        </mxCell>
        <mxCell id="fSI5KDJvqZaZzSSYszZb-596" value="idKho" style="text;html=1;align=center;verticalAlign=middle;whiteSpace=wrap;rounded=0;fontSize=25;" vertex="1" parent="1">
          <mxGeometry x="1670" y="480" width="120" height="60" as="geometry" />
        </mxCell>
        <mxCell id="fSI5KDJvqZaZzSSYszZb-597" value="" style="rounded=0;whiteSpace=wrap;html=1;" vertex="1" parent="1">
          <mxGeometry x="1790" y="480" width="150" height="60" as="geometry" />
        </mxCell>
        <mxCell id="fSI5KDJvqZaZzSSYszZb-696" style="edgeStyle=orthogonalEdgeStyle;rounded=0;orthogonalLoop=1;jettySize=auto;html=1;exitX=0.5;exitY=0;exitDx=0;exitDy=0;entryX=0.5;entryY=0;entryDx=0;entryDy=0;" edge="1" parent="1" source="fSI5KDJvqZaZzSSYszZb-598" target="fSI5KDJvqZaZzSSYszZb-159">
          <mxGeometry relative="1" as="geometry" />
        </mxCell>
        <mxCell id="fSI5KDJvqZaZzSSYszZb-598" value="idNvien" style="text;html=1;align=center;verticalAlign=middle;whiteSpace=wrap;rounded=0;fontSize=25;" vertex="1" parent="1">
          <mxGeometry x="1790" y="480" width="150" height="60" as="geometry" />
        </mxCell>
        <mxCell id="fSI5KDJvqZaZzSSYszZb-599" value="" style="rounded=0;whiteSpace=wrap;html=1;" vertex="1" parent="1">
          <mxGeometry x="1940" y="480" width="120" height="60" as="geometry" />
        </mxCell>
        <mxCell id="fSI5KDJvqZaZzSSYszZb-600" value="tongsl" style="text;html=1;align=center;verticalAlign=middle;whiteSpace=wrap;rounded=0;fontSize=25;" vertex="1" parent="1">
          <mxGeometry x="1940" y="480" width="120" height="60" as="geometry" />
        </mxCell>
        <mxCell id="fSI5KDJvqZaZzSSYszZb-601" value="" style="rounded=0;whiteSpace=wrap;html=1;" vertex="1" parent="1">
          <mxGeometry x="2060" y="480" width="120" height="60" as="geometry" />
        </mxCell>
        <mxCell id="fSI5KDJvqZaZzSSYszZb-602" value="tongtien" style="text;html=1;align=center;verticalAlign=middle;whiteSpace=wrap;rounded=0;fontSize=25;" vertex="1" parent="1">
          <mxGeometry x="2060" y="480" width="120" height="60" as="geometry" />
        </mxCell>
        <mxCell id="fSI5KDJvqZaZzSSYszZb-603" value="" style="rounded=0;whiteSpace=wrap;html=1;" vertex="1" parent="1">
          <mxGeometry x="2180" y="480" width="130" height="60" as="geometry" />
        </mxCell>
        <mxCell id="fSI5KDJvqZaZzSSYszZb-604" value="ngaynhap" style="text;html=1;align=center;verticalAlign=middle;whiteSpace=wrap;rounded=0;fontSize=25;" vertex="1" parent="1">
          <mxGeometry x="2180" y="480" width="130" height="60" as="geometry" />
        </mxCell>
        <mxCell id="fSI5KDJvqZaZzSSYszZb-609" value="" style="rounded=0;whiteSpace=wrap;html=1;" vertex="1" parent="1">
          <mxGeometry x="1430" y="640" width="120" height="60" as="geometry" />
        </mxCell>
        <mxCell id="fSI5KDJvqZaZzSSYszZb-610" value="id" style="text;html=1;align=center;verticalAlign=middle;whiteSpace=wrap;rounded=0;fontSize=25;" vertex="1" parent="1">
          <mxGeometry x="1430" y="640" width="120" height="60" as="geometry" />
        </mxCell>
        <mxCell id="fSI5KDJvqZaZzSSYszZb-611" value="" style="rounded=0;whiteSpace=wrap;html=1;" vertex="1" parent="1">
          <mxGeometry x="1550" y="640" width="120" height="60" as="geometry" />
        </mxCell>
        <mxCell id="fSI5KDJvqZaZzSSYszZb-697" style="edgeStyle=orthogonalEdgeStyle;rounded=0;orthogonalLoop=1;jettySize=auto;html=1;exitX=0.5;exitY=0;exitDx=0;exitDy=0;entryX=0.5;entryY=1;entryDx=0;entryDy=0;" edge="1" parent="1" source="fSI5KDJvqZaZzSSYszZb-612" target="fSI5KDJvqZaZzSSYszZb-592">
          <mxGeometry relative="1" as="geometry">
            <Array as="points">
              <mxPoint x="1610" y="560" />
              <mxPoint x="1490" y="560" />
            </Array>
          </mxGeometry>
        </mxCell>
        <mxCell id="fSI5KDJvqZaZzSSYszZb-612" value="idPn" style="text;html=1;align=center;verticalAlign=middle;whiteSpace=wrap;rounded=0;fontSize=25;" vertex="1" parent="1">
          <mxGeometry x="1550" y="640" width="120" height="60" as="geometry" />
        </mxCell>
        <mxCell id="fSI5KDJvqZaZzSSYszZb-613" value="" style="rounded=0;whiteSpace=wrap;html=1;" vertex="1" parent="1">
          <mxGeometry x="1940" y="640" width="120" height="60" as="geometry" />
        </mxCell>
        <mxCell id="fSI5KDJvqZaZzSSYszZb-614" value="dongia" style="text;html=1;align=center;verticalAlign=middle;whiteSpace=wrap;rounded=0;fontSize=25;" vertex="1" parent="1">
          <mxGeometry x="1940" y="640" width="120" height="60" as="geometry" />
        </mxCell>
        <mxCell id="fSI5KDJvqZaZzSSYszZb-615" value="" style="rounded=0;whiteSpace=wrap;html=1;" vertex="1" parent="1">
          <mxGeometry x="1670" y="640" width="150" height="60" as="geometry" />
        </mxCell>
        <mxCell id="fSI5KDJvqZaZzSSYszZb-698" style="edgeStyle=orthogonalEdgeStyle;rounded=0;orthogonalLoop=1;jettySize=auto;html=1;exitX=0.5;exitY=0;exitDx=0;exitDy=0;entryX=0.5;entryY=1;entryDx=0;entryDy=0;" edge="1" parent="1" source="fSI5KDJvqZaZzSSYszZb-616" target="fSI5KDJvqZaZzSSYszZb-477">
          <mxGeometry relative="1" as="geometry">
            <Array as="points">
              <mxPoint x="1745" y="560" />
              <mxPoint x="220" y="560" />
            </Array>
          </mxGeometry>
        </mxCell>
        <mxCell id="fSI5KDJvqZaZzSSYszZb-616" value="idHanghoa" style="text;html=1;align=center;verticalAlign=middle;whiteSpace=wrap;rounded=0;fontSize=25;" vertex="1" parent="1">
          <mxGeometry x="1670" y="640" width="150" height="60" as="geometry" />
        </mxCell>
        <mxCell id="fSI5KDJvqZaZzSSYszZb-617" value="" style="rounded=0;whiteSpace=wrap;html=1;" vertex="1" parent="1">
          <mxGeometry x="1820" y="640" width="120" height="60" as="geometry" />
        </mxCell>
        <mxCell id="fSI5KDJvqZaZzSSYszZb-618" value="soluong" style="text;html=1;align=center;verticalAlign=middle;whiteSpace=wrap;rounded=0;fontSize=25;" vertex="1" parent="1">
          <mxGeometry x="1820" y="640" width="120" height="60" as="geometry" />
        </mxCell>
        <mxCell id="fSI5KDJvqZaZzSSYszZb-619" value="" style="rounded=0;whiteSpace=wrap;html=1;" vertex="1" parent="1">
          <mxGeometry x="1430" y="800" width="120" height="60" as="geometry" />
        </mxCell>
        <mxCell id="fSI5KDJvqZaZzSSYszZb-620" value="id" style="text;html=1;align=center;verticalAlign=middle;whiteSpace=wrap;rounded=0;fontSize=25;" vertex="1" parent="1">
          <mxGeometry x="1430" y="800" width="120" height="60" as="geometry" />
        </mxCell>
        <mxCell id="fSI5KDJvqZaZzSSYszZb-621" value="" style="rounded=0;whiteSpace=wrap;html=1;" vertex="1" parent="1">
          <mxGeometry x="1550" y="800" width="120" height="60" as="geometry" />
        </mxCell>
        <mxCell id="fSI5KDJvqZaZzSSYszZb-699" style="edgeStyle=orthogonalEdgeStyle;rounded=0;orthogonalLoop=1;jettySize=auto;html=1;exitX=0.5;exitY=0;exitDx=0;exitDy=0;entryX=0.5;entryY=0;entryDx=0;entryDy=0;" edge="1" parent="1" source="fSI5KDJvqZaZzSSYszZb-622" target="fSI5KDJvqZaZzSSYszZb-532">
          <mxGeometry relative="1" as="geometry">
            <Array as="points">
              <mxPoint x="1610" y="770" />
              <mxPoint x="1260" y="770" />
              <mxPoint x="1260" y="930" />
              <mxPoint x="220" y="930" />
            </Array>
          </mxGeometry>
        </mxCell>
        <mxCell id="fSI5KDJvqZaZzSSYszZb-622" value="idDaily" style="text;html=1;align=center;verticalAlign=middle;whiteSpace=wrap;rounded=0;fontSize=25;" vertex="1" parent="1">
          <mxGeometry x="1550" y="800" width="120" height="60" as="geometry" />
        </mxCell>
        <mxCell id="fSI5KDJvqZaZzSSYszZb-623" value="" style="rounded=0;whiteSpace=wrap;html=1;" vertex="1" parent="1">
          <mxGeometry x="1670" y="800" width="120" height="60" as="geometry" />
        </mxCell>
        <mxCell id="fSI5KDJvqZaZzSSYszZb-700" style="edgeStyle=orthogonalEdgeStyle;rounded=0;orthogonalLoop=1;jettySize=auto;html=1;exitX=0.5;exitY=0;exitDx=0;exitDy=0;entryX=0.5;entryY=0;entryDx=0;entryDy=0;" edge="1" parent="1" source="fSI5KDJvqZaZzSSYszZb-624" target="fSI5KDJvqZaZzSSYszZb-578">
          <mxGeometry relative="1" as="geometry">
            <Array as="points">
              <mxPoint x="1730" y="780" />
              <mxPoint x="1300" y="780" />
              <mxPoint x="1300" y="1440" />
            </Array>
          </mxGeometry>
        </mxCell>
        <mxCell id="fSI5KDJvqZaZzSSYszZb-624" value="idKho" style="text;html=1;align=center;verticalAlign=middle;whiteSpace=wrap;rounded=0;fontSize=25;" vertex="1" parent="1">
          <mxGeometry x="1670" y="800" width="120" height="60" as="geometry" />
        </mxCell>
        <mxCell id="fSI5KDJvqZaZzSSYszZb-625" value="" style="rounded=0;whiteSpace=wrap;html=1;" vertex="1" parent="1">
          <mxGeometry x="1790" y="800" width="150" height="60" as="geometry" />
        </mxCell>
        <mxCell id="fSI5KDJvqZaZzSSYszZb-701" style="edgeStyle=orthogonalEdgeStyle;rounded=0;orthogonalLoop=1;jettySize=auto;html=1;exitX=0.5;exitY=0;exitDx=0;exitDy=0;entryX=0.5;entryY=0;entryDx=0;entryDy=0;" edge="1" parent="1" source="fSI5KDJvqZaZzSSYszZb-626" target="fSI5KDJvqZaZzSSYszZb-159">
          <mxGeometry relative="1" as="geometry">
            <Array as="points">
              <mxPoint x="1865" y="780" />
              <mxPoint x="2330" y="780" />
              <mxPoint x="2330" y="140" />
              <mxPoint x="220" y="140" />
            </Array>
          </mxGeometry>
        </mxCell>
        <mxCell id="fSI5KDJvqZaZzSSYszZb-626" value="idNvien" style="text;html=1;align=center;verticalAlign=middle;whiteSpace=wrap;rounded=0;fontSize=25;" vertex="1" parent="1">
          <mxGeometry x="1790" y="800" width="150" height="60" as="geometry" />
        </mxCell>
        <mxCell id="fSI5KDJvqZaZzSSYszZb-627" value="" style="rounded=0;whiteSpace=wrap;html=1;" vertex="1" parent="1">
          <mxGeometry x="1940" y="800" width="120" height="60" as="geometry" />
        </mxCell>
        <mxCell id="fSI5KDJvqZaZzSSYszZb-628" value="tongsl" style="text;html=1;align=center;verticalAlign=middle;whiteSpace=wrap;rounded=0;fontSize=25;" vertex="1" parent="1">
          <mxGeometry x="1940" y="800" width="120" height="60" as="geometry" />
        </mxCell>
        <mxCell id="fSI5KDJvqZaZzSSYszZb-629" value="" style="rounded=0;whiteSpace=wrap;html=1;" vertex="1" parent="1">
          <mxGeometry x="2060" y="800" width="120" height="60" as="geometry" />
        </mxCell>
        <mxCell id="fSI5KDJvqZaZzSSYszZb-630" value="tongtien" style="text;html=1;align=center;verticalAlign=middle;whiteSpace=wrap;rounded=0;fontSize=25;" vertex="1" parent="1">
          <mxGeometry x="2060" y="800" width="120" height="60" as="geometry" />
        </mxCell>
        <mxCell id="fSI5KDJvqZaZzSSYszZb-631" value="" style="rounded=0;whiteSpace=wrap;html=1;" vertex="1" parent="1">
          <mxGeometry x="2180" y="800" width="130" height="60" as="geometry" />
        </mxCell>
        <mxCell id="fSI5KDJvqZaZzSSYszZb-632" value="ngayxuat" style="text;html=1;align=center;verticalAlign=middle;whiteSpace=wrap;rounded=0;fontSize=25;" vertex="1" parent="1">
          <mxGeometry x="2180" y="800" width="130" height="60" as="geometry" />
        </mxCell>
        <mxCell id="fSI5KDJvqZaZzSSYszZb-633" value="" style="rounded=0;whiteSpace=wrap;html=1;" vertex="1" parent="1">
          <mxGeometry x="1430" y="960" width="120" height="60" as="geometry" />
        </mxCell>
        <mxCell id="fSI5KDJvqZaZzSSYszZb-634" value="id" style="text;html=1;align=center;verticalAlign=middle;whiteSpace=wrap;rounded=0;fontSize=25;" vertex="1" parent="1">
          <mxGeometry x="1430" y="960" width="120" height="60" as="geometry" />
        </mxCell>
        <mxCell id="fSI5KDJvqZaZzSSYszZb-635" value="" style="rounded=0;whiteSpace=wrap;html=1;" vertex="1" parent="1">
          <mxGeometry x="1550" y="960" width="120" height="60" as="geometry" />
        </mxCell>
        <mxCell id="fSI5KDJvqZaZzSSYszZb-702" style="edgeStyle=orthogonalEdgeStyle;rounded=0;orthogonalLoop=1;jettySize=auto;html=1;exitX=0.5;exitY=0;exitDx=0;exitDy=0;entryX=0.5;entryY=1;entryDx=0;entryDy=0;" edge="1" parent="1" source="fSI5KDJvqZaZzSSYszZb-636" target="fSI5KDJvqZaZzSSYszZb-620">
          <mxGeometry relative="1" as="geometry">
            <Array as="points">
              <mxPoint x="1610" y="880" />
              <mxPoint x="1490" y="880" />
            </Array>
          </mxGeometry>
        </mxCell>
        <mxCell id="fSI5KDJvqZaZzSSYszZb-636" value="idPx" style="text;html=1;align=center;verticalAlign=middle;whiteSpace=wrap;rounded=0;fontSize=25;" vertex="1" parent="1">
          <mxGeometry x="1550" y="960" width="120" height="60" as="geometry" />
        </mxCell>
        <mxCell id="fSI5KDJvqZaZzSSYszZb-637" value="" style="rounded=0;whiteSpace=wrap;html=1;" vertex="1" parent="1">
          <mxGeometry x="1940" y="960" width="120" height="60" as="geometry" />
        </mxCell>
        <mxCell id="fSI5KDJvqZaZzSSYszZb-638" value="dongia" style="text;html=1;align=center;verticalAlign=middle;whiteSpace=wrap;rounded=0;fontSize=25;" vertex="1" parent="1">
          <mxGeometry x="1940" y="960" width="120" height="60" as="geometry" />
        </mxCell>
        <mxCell id="fSI5KDJvqZaZzSSYszZb-639" value="" style="rounded=0;whiteSpace=wrap;html=1;" vertex="1" parent="1">
          <mxGeometry x="1670" y="960" width="150" height="60" as="geometry" />
        </mxCell>
        <mxCell id="fSI5KDJvqZaZzSSYszZb-703" style="edgeStyle=orthogonalEdgeStyle;rounded=0;orthogonalLoop=1;jettySize=auto;html=1;exitX=0.5;exitY=0;exitDx=0;exitDy=0;entryX=0.5;entryY=1;entryDx=0;entryDy=0;" edge="1" parent="1" source="fSI5KDJvqZaZzSSYszZb-640" target="fSI5KDJvqZaZzSSYszZb-477">
          <mxGeometry relative="1" as="geometry">
            <Array as="points">
              <mxPoint x="1745" y="880" />
              <mxPoint x="1150" y="880" />
              <mxPoint x="1150" y="560" />
              <mxPoint x="220" y="560" />
            </Array>
          </mxGeometry>
        </mxCell>
        <mxCell id="fSI5KDJvqZaZzSSYszZb-640" value="idHanghoa" style="text;html=1;align=center;verticalAlign=middle;whiteSpace=wrap;rounded=0;fontSize=25;" vertex="1" parent="1">
          <mxGeometry x="1670" y="960" width="150" height="60" as="geometry" />
        </mxCell>
        <mxCell id="fSI5KDJvqZaZzSSYszZb-641" value="" style="rounded=0;whiteSpace=wrap;html=1;" vertex="1" parent="1">
          <mxGeometry x="1820" y="960" width="120" height="60" as="geometry" />
        </mxCell>
        <mxCell id="fSI5KDJvqZaZzSSYszZb-642" value="soluong" style="text;html=1;align=center;verticalAlign=middle;whiteSpace=wrap;rounded=0;fontSize=25;" vertex="1" parent="1">
          <mxGeometry x="1820" y="960" width="120" height="60" as="geometry" />
        </mxCell>
        <mxCell id="fSI5KDJvqZaZzSSYszZb-643" value="" style="rounded=0;whiteSpace=wrap;html=1;" vertex="1" parent="1">
          <mxGeometry x="1430" y="1120" width="120" height="60" as="geometry" />
        </mxCell>
        <mxCell id="fSI5KDJvqZaZzSSYszZb-644" value="id" style="text;html=1;align=center;verticalAlign=middle;whiteSpace=wrap;rounded=0;fontSize=25;" vertex="1" parent="1">
          <mxGeometry x="1430" y="1120" width="120" height="60" as="geometry" />
        </mxCell>
        <mxCell id="fSI5KDJvqZaZzSSYszZb-645" value="" style="rounded=0;whiteSpace=wrap;html=1;" vertex="1" parent="1">
          <mxGeometry x="1550" y="1120" width="120" height="60" as="geometry" />
        </mxCell>
        <mxCell id="fSI5KDJvqZaZzSSYszZb-704" style="edgeStyle=orthogonalEdgeStyle;rounded=0;orthogonalLoop=1;jettySize=auto;html=1;exitX=0.5;exitY=0;exitDx=0;exitDy=0;entryX=0.5;entryY=0;entryDx=0;entryDy=0;" edge="1" parent="1" source="fSI5KDJvqZaZzSSYszZb-646" target="fSI5KDJvqZaZzSSYszZb-159">
          <mxGeometry relative="1" as="geometry">
            <Array as="points">
              <mxPoint x="1610" y="1100" />
              <mxPoint x="2340" y="1100" />
              <mxPoint x="2340" y="140" />
              <mxPoint x="220" y="140" />
            </Array>
          </mxGeometry>
        </mxCell>
        <mxCell id="fSI5KDJvqZaZzSSYszZb-646" value="idNvien" style="text;html=1;align=center;verticalAlign=middle;whiteSpace=wrap;rounded=0;fontSize=25;" vertex="1" parent="1">
          <mxGeometry x="1550" y="1120" width="120" height="60" as="geometry" />
        </mxCell>
        <mxCell id="fSI5KDJvqZaZzSSYszZb-647" value="" style="rounded=0;whiteSpace=wrap;html=1;" vertex="1" parent="1">
          <mxGeometry x="1670" y="1120" width="120" height="60" as="geometry" />
        </mxCell>
        <mxCell id="fSI5KDJvqZaZzSSYszZb-705" style="edgeStyle=orthogonalEdgeStyle;rounded=0;orthogonalLoop=1;jettySize=auto;html=1;exitX=0.5;exitY=0;exitDx=0;exitDy=0;entryX=0.5;entryY=0;entryDx=0;entryDy=0;" edge="1" parent="1" source="fSI5KDJvqZaZzSSYszZb-648" target="fSI5KDJvqZaZzSSYszZb-578">
          <mxGeometry relative="1" as="geometry">
            <Array as="points">
              <mxPoint x="1730" y="1100" />
              <mxPoint x="1170" y="1100" />
              <mxPoint x="1170" y="1410" />
              <mxPoint x="220" y="1410" />
            </Array>
          </mxGeometry>
        </mxCell>
        <mxCell id="fSI5KDJvqZaZzSSYszZb-648" value="idKho" style="text;html=1;align=center;verticalAlign=middle;whiteSpace=wrap;rounded=0;fontSize=25;" vertex="1" parent="1">
          <mxGeometry x="1670" y="1120" width="120" height="60" as="geometry" />
        </mxCell>
        <mxCell id="fSI5KDJvqZaZzSSYszZb-649" value="" style="rounded=0;whiteSpace=wrap;html=1;" vertex="1" parent="1">
          <mxGeometry x="1790" y="1120" width="150" height="60" as="geometry" />
        </mxCell>
        <mxCell id="fSI5KDJvqZaZzSSYszZb-650" value="tongslban" style="text;html=1;align=center;verticalAlign=middle;whiteSpace=wrap;rounded=0;fontSize=25;" vertex="1" parent="1">
          <mxGeometry x="1790" y="1120" width="150" height="60" as="geometry" />
        </mxCell>
        <mxCell id="fSI5KDJvqZaZzSSYszZb-651" value="" style="rounded=0;whiteSpace=wrap;html=1;" vertex="1" parent="1">
          <mxGeometry x="1940" y="1120" width="120" height="60" as="geometry" />
        </mxCell>
        <mxCell id="fSI5KDJvqZaZzSSYszZb-652" value="doanhthu" style="text;html=1;align=center;verticalAlign=middle;whiteSpace=wrap;rounded=0;fontSize=25;" vertex="1" parent="1">
          <mxGeometry x="1940" y="1120" width="120" height="60" as="geometry" />
        </mxCell>
        <mxCell id="fSI5KDJvqZaZzSSYszZb-653" value="" style="rounded=0;whiteSpace=wrap;html=1;" vertex="1" parent="1">
          <mxGeometry x="2060" y="1120" width="160" height="60" as="geometry" />
        </mxCell>
        <mxCell id="fSI5KDJvqZaZzSSYszZb-654" value="ngaybaocao" style="text;html=1;align=center;verticalAlign=middle;whiteSpace=wrap;rounded=0;fontSize=25;" vertex="1" parent="1">
          <mxGeometry x="2060" y="1120" width="160" height="60" as="geometry" />
        </mxCell>
        <mxCell id="fSI5KDJvqZaZzSSYszZb-657" value="" style="rounded=0;whiteSpace=wrap;html=1;" vertex="1" parent="1">
          <mxGeometry x="1430" y="1280" width="120" height="60" as="geometry" />
        </mxCell>
        <mxCell id="fSI5KDJvqZaZzSSYszZb-658" value="id" style="text;html=1;align=center;verticalAlign=middle;whiteSpace=wrap;rounded=0;fontSize=25;" vertex="1" parent="1">
          <mxGeometry x="1430" y="1280" width="120" height="60" as="geometry" />
        </mxCell>
        <mxCell id="fSI5KDJvqZaZzSSYszZb-659" value="" style="rounded=0;whiteSpace=wrap;html=1;" vertex="1" parent="1">
          <mxGeometry x="1550" y="1280" width="120" height="60" as="geometry" />
        </mxCell>
        <mxCell id="fSI5KDJvqZaZzSSYszZb-706" style="edgeStyle=orthogonalEdgeStyle;rounded=0;orthogonalLoop=1;jettySize=auto;html=1;exitX=0.5;exitY=0;exitDx=0;exitDy=0;entryX=0.5;entryY=1;entryDx=0;entryDy=0;" edge="1" parent="1" source="fSI5KDJvqZaZzSSYszZb-660" target="fSI5KDJvqZaZzSSYszZb-644">
          <mxGeometry relative="1" as="geometry">
            <Array as="points">
              <mxPoint x="1610" y="1200" />
              <mxPoint x="1490" y="1200" />
            </Array>
          </mxGeometry>
        </mxCell>
        <mxCell id="fSI5KDJvqZaZzSSYszZb-660" value="idPbc" style="text;html=1;align=center;verticalAlign=middle;whiteSpace=wrap;rounded=0;fontSize=25;" vertex="1" parent="1">
          <mxGeometry x="1550" y="1280" width="120" height="60" as="geometry" />
        </mxCell>
        <mxCell id="fSI5KDJvqZaZzSSYszZb-661" value="" style="rounded=0;whiteSpace=wrap;html=1;" vertex="1" parent="1">
          <mxGeometry x="1940" y="1280" width="120" height="60" as="geometry" />
        </mxCell>
        <mxCell id="fSI5KDJvqZaZzSSYszZb-662" value="tongtien" style="text;html=1;align=center;verticalAlign=middle;whiteSpace=wrap;rounded=0;fontSize=25;" vertex="1" parent="1">
          <mxGeometry x="1940" y="1280" width="120" height="60" as="geometry" />
        </mxCell>
        <mxCell id="fSI5KDJvqZaZzSSYszZb-663" value="" style="rounded=0;whiteSpace=wrap;html=1;" vertex="1" parent="1">
          <mxGeometry x="1670" y="1280" width="150" height="60" as="geometry" />
        </mxCell>
        <mxCell id="fSI5KDJvqZaZzSSYszZb-707" style="edgeStyle=orthogonalEdgeStyle;rounded=0;orthogonalLoop=1;jettySize=auto;html=1;exitX=0.5;exitY=0;exitDx=0;exitDy=0;entryX=0.5;entryY=1;entryDx=0;entryDy=0;" edge="1" parent="1" source="fSI5KDJvqZaZzSSYszZb-664" target="fSI5KDJvqZaZzSSYszZb-477">
          <mxGeometry relative="1" as="geometry">
            <Array as="points">
              <mxPoint x="1745" y="1200" />
              <mxPoint x="1110" y="1200" />
              <mxPoint x="1110" y="560" />
              <mxPoint x="220" y="560" />
            </Array>
          </mxGeometry>
        </mxCell>
        <mxCell id="fSI5KDJvqZaZzSSYszZb-664" value="idHanghoa" style="text;html=1;align=center;verticalAlign=middle;whiteSpace=wrap;rounded=0;fontSize=25;" vertex="1" parent="1">
          <mxGeometry x="1670" y="1280" width="150" height="60" as="geometry" />
        </mxCell>
        <mxCell id="fSI5KDJvqZaZzSSYszZb-665" value="" style="rounded=0;whiteSpace=wrap;html=1;" vertex="1" parent="1">
          <mxGeometry x="1820" y="1280" width="120" height="60" as="geometry" />
        </mxCell>
        <mxCell id="fSI5KDJvqZaZzSSYszZb-666" value="slban" style="text;html=1;align=center;verticalAlign=middle;whiteSpace=wrap;rounded=0;fontSize=25;" vertex="1" parent="1">
          <mxGeometry x="1820" y="1280" width="120" height="60" as="geometry" />
        </mxCell>
        <mxCell id="fSI5KDJvqZaZzSSYszZb-668" value="NHAN_VIEN" style="text;html=1;align=left;verticalAlign=middle;resizable=0;points=[];autosize=1;strokeColor=none;fillColor=none;fontSize=30;fontStyle=1" vertex="1" parent="1">
          <mxGeometry x="160" y="80" width="200" height="50" as="geometry" />
        </mxCell>
        <mxCell id="fSI5KDJvqZaZzSSYszZb-669" value="VAI_TRO" style="text;html=1;align=left;verticalAlign=middle;resizable=0;points=[];autosize=1;strokeColor=none;fillColor=none;fontSize=30;fontStyle=1" vertex="1" parent="1">
          <mxGeometry x="160" y="240" width="150" height="50" as="geometry" />
        </mxCell>
        <mxCell id="fSI5KDJvqZaZzSSYszZb-670" value="HANG_HOA" style="text;html=1;align=left;verticalAlign=middle;resizable=0;points=[];autosize=1;strokeColor=none;fillColor=none;fontSize=30;fontStyle=1" vertex="1" parent="1">
          <mxGeometry x="160" y="400" width="190" height="50" as="geometry" />
        </mxCell>
        <mxCell id="fSI5KDJvqZaZzSSYszZb-671" value="NHA_CUNG_CAP" style="text;html=1;align=left;verticalAlign=middle;resizable=0;points=[];autosize=1;strokeColor=none;fillColor=none;fontSize=30;fontStyle=1" vertex="1" parent="1">
          <mxGeometry x="160" y="560" width="270" height="50" as="geometry" />
        </mxCell>
        <mxCell id="fSI5KDJvqZaZzSSYszZb-672" value="HH_NCC" style="text;html=1;align=left;verticalAlign=middle;resizable=0;points=[];autosize=1;strokeColor=none;fillColor=none;fontSize=30;fontStyle=1" vertex="1" parent="1">
          <mxGeometry x="160" y="720" width="150" height="50" as="geometry" />
        </mxCell>
        <mxCell id="fSI5KDJvqZaZzSSYszZb-673" value="DAI_LY" style="text;html=1;align=left;verticalAlign=middle;resizable=0;points=[];autosize=1;strokeColor=none;fillColor=none;fontSize=30;fontStyle=1" vertex="1" parent="1">
          <mxGeometry x="160" y="880" width="120" height="50" as="geometry" />
        </mxCell>
        <mxCell id="fSI5KDJvqZaZzSSYszZb-674" value="PHIEU_KIEM_KE" style="text;html=1;align=left;verticalAlign=middle;resizable=0;points=[];autosize=1;strokeColor=none;fillColor=none;fontSize=30;fontStyle=1" vertex="1" parent="1">
          <mxGeometry x="160" y="1040" width="260" height="50" as="geometry" />
        </mxCell>
        <mxCell id="fSI5KDJvqZaZzSSYszZb-675" value="PKK_HH" style="text;html=1;align=left;verticalAlign=middle;resizable=0;points=[];autosize=1;strokeColor=none;fillColor=none;fontSize=30;fontStyle=1" vertex="1" parent="1">
          <mxGeometry x="160" y="1200" width="140" height="50" as="geometry" />
        </mxCell>
        <mxCell id="fSI5KDJvqZaZzSSYszZb-676" value="KHO" style="text;html=1;align=left;verticalAlign=middle;resizable=0;points=[];autosize=1;strokeColor=none;fillColor=none;fontSize=30;fontStyle=1" vertex="1" parent="1">
          <mxGeometry x="160" y="1360" width="90" height="50" as="geometry" />
        </mxCell>
        <mxCell id="fSI5KDJvqZaZzSSYszZb-677" value="KHO_HH" style="text;html=1;align=left;verticalAlign=middle;resizable=0;points=[];autosize=1;strokeColor=none;fillColor=none;fontSize=30;fontStyle=1" vertex="1" parent="1">
          <mxGeometry x="160" y="1520" width="150" height="50" as="geometry" />
        </mxCell>
        <mxCell id="fSI5KDJvqZaZzSSYszZb-678" value="PHIEU_NHAP" style="text;html=1;align=left;verticalAlign=middle;resizable=0;points=[];autosize=1;strokeColor=none;fillColor=none;fontSize=30;fontStyle=1" vertex="1" parent="1">
          <mxGeometry x="1430" y="400" width="220" height="50" as="geometry" />
        </mxCell>
        <mxCell id="fSI5KDJvqZaZzSSYszZb-679" value="PN_HH" style="text;html=1;align=left;verticalAlign=middle;resizable=0;points=[];autosize=1;strokeColor=none;fillColor=none;fontSize=30;fontStyle=1" vertex="1" parent="1">
          <mxGeometry x="1430" y="560" width="130" height="50" as="geometry" />
        </mxCell>
        <mxCell id="fSI5KDJvqZaZzSSYszZb-680" value="PHIEU_XUAT" style="text;html=1;align=left;verticalAlign=middle;resizable=0;points=[];autosize=1;strokeColor=none;fillColor=none;fontSize=30;fontStyle=1" vertex="1" parent="1">
          <mxGeometry x="1430" y="720" width="210" height="50" as="geometry" />
        </mxCell>
        <mxCell id="fSI5KDJvqZaZzSSYszZb-681" value="PX_HH" style="text;html=1;align=left;verticalAlign=middle;resizable=0;points=[];autosize=1;strokeColor=none;fillColor=none;fontSize=30;fontStyle=1" vertex="1" parent="1">
          <mxGeometry x="1430" y="880" width="120" height="50" as="geometry" />
        </mxCell>
        <mxCell id="fSI5KDJvqZaZzSSYszZb-682" value="PHIEU_BAO_CAO" style="text;html=1;align=left;verticalAlign=middle;resizable=0;points=[];autosize=1;strokeColor=none;fillColor=none;fontSize=30;fontStyle=1" vertex="1" parent="1">
          <mxGeometry x="1430" y="1035" width="280" height="50" as="geometry" />
        </mxCell>
        <mxCell id="fSI5KDJvqZaZzSSYszZb-683" value="BC_HH" style="text;html=1;align=left;verticalAlign=middle;resizable=0;points=[];autosize=1;strokeColor=none;fillColor=none;fontSize=30;fontStyle=1" vertex="1" parent="1">
          <mxGeometry x="1430" y="1200" width="130" height="50" as="geometry" />
        </mxCell>
      </root>
    </mxGraphModel>
  </diagram>
</mxfile>
